<?xml version="1.0" standalone="no"?>
<!DOCTYPE svg PUBLIC "-//W3C//DTD SVG 20010904//EN"
 "http://www.w3.org/TR/2001/REC-SVG-20010904/DTD/svg10.dtd">
<svg version="1.0" xmlns="http://www.w3.org/2000/svg"
 width="200.000000pt" height="200.000000pt" viewBox="0 0 200.000000 200.000000"
 preserveAspectRatio="xMidYMid meet">
<metadata>
Created by potrace 1.11, written by Peter Selinger 2001-2013
</metadata>
<g transform="translate(0.000000,200.000000) scale(0.100000,-0.100000)"
fill="#000000" stroke="none">
<path d="M845 1948 c-356 -64 -647 -315 -759 -653 -52 -160 -57 -381 -12 -543
77 -275 273 -508 526 -624 133 -61 237 -82 405 -82 114 0 156 4 225 23 353 94
609 350 701 701 30 116 34 307 9 423 -81 368 -359 653 -725 742 -80 20 -292
27 -370 13z m321 -179 c308 -67 541 -303 607 -614 14 -66 17 -248 4 -300 -73
-302 -254 -510 -521 -600 -98 -33 -117 -36 -231 -40 -384 -15 -712 244 -798
629 -22 97 -16 267 13 366 46 159 134 295 261 400 96 80 250 150 364 167 22 3
42 7 43 8 12 11 186 0 258 -16z"/>
<path d="M567 1562 c-16 -3 -17 -47 -17 -578 l0 -574 120 0 120 0 0 255 c0
163 4 255 10 256 6 1 107 2 225 3 l215 1 -1 -185 c0 -102 0 -218 0 -257 l1
-73 119 0 118 0 0 570 c0 319 -4 573 -9 576 -10 7 -218 7 -224 1 -3 -2 -5
-101 -5 -219 l-1 -216 -224 1 -224 1 0 220 0 221 -103 0 c-57 0 -111 -1 -120
-3z"/>
</g>
</svg>
